<?xml version="1.0" encoding="UTF-8"?>
<svg xmlns="http://www.w3.org/2000/svg" xmlns:xlink="http://www.w3.org/1999/xlink" width="16px" height="16px" viewBox="0 0 16 16" version="1.1">
<defs>
<linearGradient id="linear0" gradientUnits="userSpaceOnUse" x1="0" y1="1" x2="1" y2="0" gradientTransform="matrix(16,0,0,16,0,0)">
<stop offset="0" style="stop-color:rgb(69.019608%,3.137255%,30.196078%);stop-opacity:1;"/>
<stop offset="1" style="stop-color:rgb(100%,30.980392%,54.509804%);stop-opacity:1;"/>
</linearGradient>
</defs>
<g id="surface1">
<rect x="0" y="0" width="16" height="16" style="fill:url(#linear0);stroke:none;"/>
<path style=" stroke:none;fill-rule:evenodd;fill:rgb(100%,100%,100%);fill-opacity:1;" d="M 6.8125 11.125 L 7.398438 11.125 L 7.398438 10.722656 L 6.8125 10.722656 Z M 7.800781 11.125 L 8.398438 11.125 L 8.398438 10.722656 L 7.800781 10.722656 Z M 5.398438 2.925781 L 2.800781 4.214844 L 2.800781 12.238281 L 5.398438 13.117188 Z M 5.800781 5.480469 L 5.800781 10.722656 L 6.398438 10.722656 L 6.398438 11.125 L 5.800781 11.125 L 5.800781 13.398438 C 5.800781 13.464844 5.769531 13.523438 5.71875 13.5625 C 5.683594 13.585938 5.640625 13.601562 5.601562 13.601562 C 5.578125 13.601562 5.558594 13.597656 5.535156 13.589844 L 2.535156 12.574219 C 2.453125 12.546875 2.398438 12.46875 2.398438 12.382812 L 2.398438 4.089844 C 2.398438 4.015625 2.445312 3.945312 2.511719 3.910156 L 5.511719 2.421875 C 5.574219 2.390625 5.648438 2.394531 5.707031 2.429688 C 5.765625 2.46875 5.800781 2.53125 5.800781 2.601562 L 5.800781 5.074219 L 6.398438 5.074219 L 6.398438 5.480469 Z M 8.800781 11.125 L 9.398438 11.125 L 9.398438 10.722656 L 8.800781 10.722656 Z M 8.8125 5.480469 L 9.398438 5.480469 L 9.398438 5.074219 L 8.8125 5.074219 Z M 7.8125 5.480469 L 8.398438 5.480469 L 8.398438 5.074219 L 7.8125 5.074219 Z M 6.8125 5.480469 L 7.398438 5.480469 L 7.398438 5.074219 L 6.8125 5.074219 Z M 13.199219 4.214844 L 10.601562 2.925781 L 10.601562 13.117188 L 13.199219 12.238281 Z M 13.601562 12.382812 C 13.601562 12.46875 13.546875 12.546875 13.464844 12.574219 L 10.464844 13.589844 C 10.441406 13.597656 10.421875 13.601562 10.398438 13.601562 C 10.359375 13.601562 10.316406 13.585938 10.28125 13.5625 C 10.230469 13.523438 10.199219 13.464844 10.199219 13.398438 L 10.199219 11.125 L 9.8125 11.125 L 9.8125 10.722656 L 10.199219 10.722656 L 10.199219 5.480469 L 9.8125 5.480469 L 9.8125 5.074219 L 10.199219 5.074219 L 10.199219 2.601562 C 10.199219 2.53125 10.234375 2.46875 10.292969 2.429688 C 10.351562 2.394531 10.425781 2.390625 10.488281 2.421875 L 13.488281 3.910156 C 13.554688 3.945312 13.601562 4.015625 13.601562 4.089844 Z M 8.585938 6.761719 L 8.214844 6.617188 L 7.214844 9.238281 L 7.585938 9.382812 Z M 9.941406 8.042969 C 10.019531 7.964844 10.019531 7.835938 9.941406 7.757812 L 9.140625 6.949219 L 8.859375 7.234375 L 9.515625 7.898438 L 8.859375 8.5625 L 9.140625 8.847656 Z M 6.859375 8.847656 L 6.058594 8.042969 C 5.980469 7.964844 5.980469 7.835938 6.058594 7.757812 L 6.859375 6.949219 L 7.140625 7.234375 L 6.484375 7.898438 L 7.140625 8.5625 Z M 6.859375 8.847656 "/>
</g>
</svg>
