<svg id="Layer_1" data-name="Layer 1" xmlns="http://www.w3.org/2000/svg" viewBox="0 0 800 800"><defs><style>.cls-1{fill:#252f3e;}.cls-2{fill:#f90;fill-rule:evenodd;}</style></defs><path class="cls-1" d="M269.09,366.91c0,7.38.79,13.37,2.19,17.76A106.66,106.66,0,0,0,277.67,399a8.71,8.71,0,0,1,1.39,4.59c0,2-1.19,4-3.79,6L262.7,418a9.62,9.62,0,0,1-5.19,1.79c-2,0-4-1-6-2.79a62.15,62.15,0,0,1-7.19-9.38c-2-3.39-4-7.19-6.18-11.77q-23.35,27.52-58.67,27.53c-16.77,0-30.14-4.79-39.91-14.36s-14.77-22.35-14.77-38.32c0-17,6-30.73,18.16-41.11S171.3,314,191.86,314A159.23,159.23,0,0,1,213,315.62c7.38,1,15,2.6,23,4.39V305.45c0-15.17-3.19-25.75-9.38-31.93-6.38-6.19-17.16-9.18-32.53-9.18a91.15,91.15,0,0,0-21.55,2.59A158.65,158.65,0,0,0,151,273.72a56.91,56.91,0,0,1-7,2.59,12.27,12.27,0,0,1-3.2.6c-2.79,0-4.19-2-4.19-6.19V261c0-3.2.4-5.59,1.4-7a15,15,0,0,1,5.59-4.19,115.11,115.11,0,0,1,25.14-9A121.21,121.21,0,0,1,199.84,237c23.75,0,41.11,5.39,52.28,16.16,11,10.78,16.57,27.14,16.57,49.09v64.66Zm-81,30.33a64.78,64.78,0,0,0,20.55-3.59,44.38,44.38,0,0,0,19-12.77,31.59,31.59,0,0,0,6.78-12.77,71.51,71.51,0,0,0,2-17.36v-8.39A168.67,168.67,0,0,0,218,339a150.07,150.07,0,0,0-18.76-1.2c-13.37,0-23.15,2.6-29.73,8s-9.78,13-9.78,22.95c0,9.37,2.4,16.36,7.38,21.15,4.79,5,11.78,7.38,21,7.38Zm160.24,21.55c-3.59,0-6-.59-7.58-2-1.6-1.2-3-4-4.19-7.78l-46.9-154.26c-1.2-4-1.8-6.58-1.8-8,0-3.19,1.6-5,4.79-5h19.56c3.79,0,6.39.6,7.78,2,1.6,1.19,2.8,4,4,7.78l33.53,132.1,31.13-132.1c1-4,2.19-6.59,3.79-7.78s4.39-2,8-2h16c3.79,0,6.38.6,8,2,1.6,1.19,3,4,3.79,7.78l31.53,133.7,34.52-133.7c1.2-4,2.6-6.59,4-7.78,1.6-1.2,4.19-2,7.79-2h18.55c3.2,0,5,1.6,5,5a19.83,19.83,0,0,1-.4,3.19,28,28,0,0,1-1.39,5L479.62,409.22q-1.8,6-4.2,7.78c-1.59,1.2-4.19,2-7.58,2H450.68c-3.79,0-6.39-.6-8-2s-3-4-3.79-8L408,280.3,377.24,408.82c-1,4-2.19,6.58-3.79,8s-4.39,2-8,2Zm256.43,5.39A132.37,132.37,0,0,1,574,420.59c-10-2.39-17.76-5-22.94-8-3.2-1.8-5.39-3.79-6.19-5.59a14.07,14.07,0,0,1-1.2-5.59V391.26c0-4.2,1.6-6.19,4.59-6.19a11.22,11.22,0,0,1,3.59.6c1.2.4,3,1.2,5,2a108.5,108.5,0,0,0,21.95,7A120.42,120.42,0,0,0,602.54,397c12.57,0,22.35-2.19,29.13-6.58a21.49,21.49,0,0,0,10.38-19,19.4,19.4,0,0,0-5.39-14c-3.59-3.79-10.37-7.18-20.15-10.38l-28.94-9c-14.56-4.59-25.34-11.37-31.93-20.35a47.57,47.57,0,0,1-10-28.94,44.34,44.34,0,0,1,5.39-22.15,51.39,51.39,0,0,1,14.36-16.36A63.43,63.43,0,0,1,586.18,240a87.1,87.1,0,0,1,25.14-3.39,100,100,0,0,1,13.37.8c4.59.6,8.78,1.4,13,2.19,4,1,7.78,2,11.38,3.2a43.1,43.1,0,0,1,8.38,3.59,17.19,17.19,0,0,1,6,5,10.71,10.71,0,0,1,1.8,6.58v9.38c0,4.19-1.6,6.39-4.59,6.39-1.6,0-4.19-.8-7.58-2.4q-17.07-7.77-38.32-7.78c-11.37,0-20.35,1.8-26.54,5.59s-9.38,9.58-9.38,17.76a18.85,18.85,0,0,0,6,14.17c4,3.79,11.37,7.58,22,11l28.34,9c14.37,4.59,24.74,11,30.93,19.16a45.19,45.19,0,0,1,9.18,27.94A51.36,51.36,0,0,1,670,391.26a53.66,53.66,0,0,1-14.57,17.56A64.35,64.35,0,0,1,633.27,420a95,95,0,0,1-28.53,4.19Z"/><path class="cls-2" d="M642.45,521.16c-65.65,48.5-161,74.24-243.06,74.24-114.94,0-218.51-42.51-296.73-113.15-6.19-5.59-.6-13.17,6.78-8.78,84.61,49.09,189,78.83,296.94,78.83,72.84,0,152.86-15.17,226.49-46.3C643.85,501,653.23,513.18,642.45,521.16Z"/><path class="cls-2" d="M669.79,490c-8.38-10.77-55.48-5.18-76.83-2.59-6.38.8-7.38-4.79-1.59-9,37.51-26.34,99.17-18.76,106.36-10,7.18,9-2,70.64-37.12,100.18-5.39,4.59-10.58,2.19-8.18-3.79C660.41,545.11,678.17,500.61,669.79,490Z"/></svg>