<?xml version="1.0" encoding="utf-8"?>
<!-- Generator: Adobe Illustrator 24.3.0, SVG Export Plug-In . SVG Version: 6.00 Build 0)  -->
<svg version="1.1" id="Layer_1" xmlns="http://www.w3.org/2000/svg" xmlns:xlink="http://www.w3.org/1999/xlink" x="0px" y="0px"
	 viewBox="0 0 24 24" style="enable-background:new 0 0 24 24;" xml:space="preserve">
<style type="text/css">
	.st0{fill:#147EBA;}
</style>
<g id="Rectangle_1996">
	<path class="st0" d="M18,24h-2.7v-1H18c0.4,0,0.8,0,1.2-0.1l0.2,1C18.9,23.9,18.5,24,18,24z M11.3,24h-4v-1h4V24z M3.2,23.3
		c-1.3-0.7-2.3-1.8-2.8-3.2l0.9-0.3c0.4,1.2,1.2,2.1,2.3,2.7L3.2,23.3z M22.9,21.4l-0.8-0.6C22.7,20,23,19,23,18v-0.6h1V18
		C24,19.2,23.6,20.4,22.9,21.4z M1,15.9H0v-4h1V15.9z M24,13.4h-1v-4h1V13.4z M1,7.9H0V6c0-0.8,0.1-1.5,0.4-2.2l0.9,0.4
		C1.1,4.7,1,5.4,1,6V7.9z M23,5.4c-0.1-1.2-0.7-2.3-1.6-3.2L22,1.5c1.1,1,1.8,2.3,2,3.8L23,5.4z M3.7,1.5L3.3,0.6C4.1,0.2,5,0,6,0h4
		v1H6C5.2,1,4.4,1.2,3.7,1.5z M18,1h-4V0h4V1z"/>
</g>
</svg>
