<svg width="100" height="100" viewBox="0 0 100 100" fill="none" xmlns="http://www.w3.org/2000/svg">
<g clip-path="url(#clip0_410_3804)">
<path d="M69.2003 23.3333C68.8003 18.1333 59.107 15.3333 49.9603 15.3333C40.8137 15.3333 31.107 18.1333 30.667 23.3333V63.3332C30.667 68.7332 40.627 71.6533 50.0003 71.6533C59.3737 71.6533 69.3337 68.7466 69.3337 63.3466V23.3466L69.2003 23.3333ZM49.9603 17.9999C60.2537 17.9999 66.5737 21.2933 66.5737 23.6666C66.5737 26.0399 60.2537 29.3333 49.9603 29.3333C39.667 29.3333 33.3337 26.0266 33.3337 23.6666C33.3337 21.3066 39.6537 17.9999 49.9603 17.9999ZM49.9603 68.9999C39.6537 68.9999 33.3337 65.7066 33.3337 63.3466V55.6533C36.8937 58.3199 43.6137 59.6533 50.0403 59.6533C56.467 59.6533 63.0803 58.3199 66.667 55.6533V63.2933C66.5737 65.7066 60.2537 68.9999 49.9603 68.9999ZM50.0403 56.9999C39.747 56.9999 33.427 53.6932 33.427 51.3332H33.3337V42.3199C36.8937 44.9866 43.6137 46.3199 50.0403 46.3199C56.467 46.3199 63.0803 44.9866 66.667 42.3199V51.3332C66.667 53.6932 60.347 56.9999 50.0403 56.9999ZM50.0403 43.6666C39.747 43.6666 33.427 40.3599 33.427 37.9999H33.3337V27.9999C36.9203 30.5866 43.5737 31.9999 49.9603 31.9999C56.347 31.9999 63.107 30.6666 66.667 27.9999V37.9999C66.667 40.3599 60.347 43.6666 50.0403 43.6666Z" fill="#3E4DD0"/>
<path d="M34.6667 74H32V82H34.6667V74Z" fill="#3E4DD0"/>
<path d="M68.0007 74H65.334V82H68.0007V74Z" fill="#3E4DD0"/>
<path d="M45.3337 76.6665H42.667V84.6665H45.3337V76.6665Z" fill="#3E4DD0"/>
<path d="M57.3337 76.6665H54.667V84.6665H57.3337V76.6665Z" fill="#3E4DD0"/>
</g>
<defs>
<clipPath id="clip0_410_3804">
<rect width="100" height="100" fill="white"/>
</clipPath>
</defs>
</svg>
