<?xml version="1.0" encoding="utf-8"?>
<!-- Generator: Adobe Illustrator 25.2.0, SVG Export Plug-In . SVG Version: 6.00 Build 0)  -->
<svg version="1.1" id="Layer_1" xmlns="http://www.w3.org/2000/svg" xmlns:xlink="http://www.w3.org/1999/xlink" x="0px" y="0px"
	 viewBox="0 0 50 50" style="enable-background:new 0 0 50 50;" xml:space="preserve">
<style type="text/css">
	.st0{fill:#D45B07;}
</style>
<g>
	<path class="st0" d="M20,11.1h-4.3c-0.4,0-0.8,0.3-0.8,0.8v4.3c0,0.4,0.3,0.8,0.8,0.8H20c0.4,0,0.8-0.3,0.8-0.8v-4.3
		C20.7,11.5,20.4,11.1,20,11.1z M19.2,15.4h-2.8v-2.8h2.8V15.4z"/>
	<path class="st0" d="M20,21.2h-4.3c-0.4,0-0.8,0.3-0.8,0.8v4.3c0,0.4,0.3,0.8,0.8,0.8H20c0.4,0,0.8-0.3,0.8-0.8V22
		C20.7,21.5,20.4,21.2,20,21.2z M19.2,25.4h-2.8v-2.8h2.8V25.4z"/>
	<path class="st0" d="M20,31.2h-4.3c-0.4,0-0.8,0.3-0.8,0.8v4.3c0,0.4,0.3,0.8,0.8,0.8H20c0.4,0,0.8-0.3,0.8-0.8V32
		C20.7,31.5,20.4,31.2,20,31.2z M19.2,35.5h-2.8v-2.8h2.8V35.5z"/>
	<rect x="22.1" y="13.3" class="st0" width="12.9" height="1.5"/>
	<rect x="22.1" y="33.3" class="st0" width="12.9" height="1.5"/>
	<rect x="22.1" y="23.3" class="st0" width="12.9" height="1.5"/>
	<path class="st0" d="M43,22.3c-0.6-0.6-0.8-1.6-0.8-3.1v-5.1c0-1.1-0.1-2.1-0.3-2.9s-0.6-1.5-1-2C40.4,8.7,39.8,8.3,39,8
		c-0.8-0.3-1.7-0.4-2.9-0.4v2c1,0,1.8,0.2,2.3,0.5c0.6,0.3,1,0.8,1.2,1.5s0.4,1.5,0.4,2.6V20c0,0.7,0.1,1.4,0.3,2s0.5,1.1,0.9,1.4
		c0.4,0.4,1.1,0.7,1.9,0.9l0,0v0.2l0,0c-0.8,0.2-1.4,0.5-1.9,0.9c-0.4,0.4-0.8,0.9-0.9,1.5c-0.2,0.6-0.3,1.2-0.3,2v5.8
		c0,1.1-0.1,1.9-0.4,2.6s-0.7,1.2-1.2,1.5C37.7,39,37,39.2,36,39.2v2c1.1,0,2.1-0.1,2.9-0.4c0.8-0.3,1.4-0.7,1.9-1.2s0.8-1.2,1-2
		s0.3-1.8,0.3-2.9v-5.1c0-1.5,0.3-2.5,0.8-3.1c0.6-0.6,1.6-0.9,3.1-0.9v-1v-0.3v-1C44.5,23.2,43.5,22.9,43,22.3z"/>
	<path class="st0" d="M8.3,9.2c-0.5,0.5-0.8,1.2-1,2S6.9,13,6.9,14.1v5.1c0,1.5-0.3,2.5-0.8,3.1c-0.6,0.6-1.6,0.9-3.1,0.9v1v0.3v1
		c1.5,0,2.5,0.3,3.1,0.9s0.8,1.6,0.8,3.1v5.1c0,1.1,0.1,2.1,0.3,2.9s0.6,1.5,1,2c0.5,0.5,1.1,0.9,1.9,1.2c0.8,0.3,1.7,0.4,2.9,0.4
		v-2c-1,0-1.8-0.2-2.3-0.5c-0.6-0.3-1-0.8-1.2-1.5s-0.4-1.5-0.4-2.6v-5.8c0-0.7-0.1-1.4-0.3-2s-0.5-1.1-0.9-1.5S6.8,24.5,6,24.3l0,0
		v-0.2l0,0c0.8-0.2,1.4-0.5,1.9-0.9c0.4-0.4,0.8-0.9,0.9-1.4s0.3-1.2,0.3-2V14c0-1.1,0.1-1.9,0.4-2.6s0.7-1.2,1.2-1.5
		c0.6-0.3,1.4-0.5,2.3-0.5v-2c-1,0.2-2,0.3-2.8,0.6C9.4,8.2,8.8,8.6,8.3,9.2z"/>
</g>
</svg>
