<?xml version="1.0" encoding="utf-8"?>
<!-- Generator: Adobe Illustrator 25.1.0, SVG Export Plug-In . SVG Version: 6.00 Build 0)  -->
<svg version="1.1" id="Layer_1" xmlns="http://www.w3.org/2000/svg" xmlns:xlink="http://www.w3.org/1999/xlink" x="0px" y="0px"
	 viewBox="0 0 50 50" style="enable-background:new 0 0 50 50;" xml:space="preserve">
<style type="text/css">
	.st0{fill:#FFFFFF;}
	.st1{fill:#693CC5;}
</style>
<rect x="726" y="871.2" class="st0" width="233.1" height="193.4"/>
<g>
	<path class="st1" d="M25,1.5C12,1.5,1.5,12,1.5,25S12,48.5,25,48.5S48.5,38,48.5,25S38,1.5,25,1.5z M25,46.5
		C13.1,46.5,3.5,36.9,3.5,25S13.1,3.5,25,3.5S46.5,13.1,46.5,25S36.9,46.5,25,46.5z"/>
	<path class="st1" d="M31.9,14.7H21.7V19h1.9v-2.4h8.3v3.3h8v-8h-8C31.9,11.9,31.9,14.7,31.9,14.7z M33.8,13.8H38V18h-4.2V13.8z"/>
	<path class="st1" d="M31.9,24h-2.2v1.9h2.2v3.3h8v-8h-8C31.9,21.2,31.9,24,31.9,24z M33.8,23.1H38v4.2h-4.2V23.1z"/>
	<path class="st1" d="M31.9,33.1h-8.3v-2.3h-1.9V35h10.2v3.1h8v-8h-8C31.9,30.1,31.9,33.1,31.9,33.1z M33.8,32H38v4.2h-4.2V32z"/>
	<polygon class="st1" points="19.5,20.6 16.7,17.8 13.9,20.6 15.7,20.6 15.7,29.4 13.9,29.4 16.7,32.2 19.5,29.4 17.6,29.4 
		17.6,20.6 	"/>
	<polygon class="st1" points="10.6,24 6.3,24 6.3,25.9 10.6,25.9 10.6,27.8 13.4,25 10.6,22.2 	"/>
	<polygon class="st1" points="20,25 22.8,27.8 22.8,25.9 27.2,25.9 27.2,24 22.8,24 22.8,22.2 	"/>
</g>
</svg>
