<svg width="80" height="80" viewBox="0 0 80 80" fill="none" xmlns="http://www.w3.org/2000/svg">
<g clip-path="url(#clip0_185_51347)">
<path d="M80 0H0V80H80V0Z" fill="url(#paint0_linear_185_51347)"/>
<path fill-rule="evenodd" clip-rule="evenodd" d="M33 23H35V21H33V23ZM31 24V20C31 19.448 31.447 19 32 19H36C36.553 19 37 19.448 37 20V24C37 24.552 36.553 25 36 25H32C31.447 25 31 24.552 31 24ZM41 17H43V15H41V17ZM39 18V14C39 13.448 39.447 13 40 13H44C44.553 13 45 13.448 45 14V18C45 18.552 44.553 19 44 19H40C39.447 19 39 18.552 39 18ZM43 27H45V25H43V27ZM42 23H46C46.553 23 47 23.448 47 24V28C47 28.552 46.553 29 46 29H42C41.447 29 41 28.552 41 28V24C41 23.448 41.447 23 42 23ZM40 33.5C38.239 33.5 31.854 33.425 27.701 32.404L37.846 48.466C37.946 48.626 38 48.811 38 49V51.277C39.404 51.684 40.701 51.688 42 51.293V49C42 48.811 42.054 48.626 42.154 48.466L52.299 32.404C48.146 33.425 41.761 33.5 40 33.5ZM24.254 30.692C24.095 30.46 24 30.21 24 29.937C24 27.092 33.384 26.566 38.978 26.505L38.999 28.505C32.127 28.58 27.928 29.364 26.448 29.948C28.018 30.604 32.643 31.5 40 31.5C47.338 31.5 51.957 30.609 53.539 29.954C52.893 29.693 51.555 29.307 48.879 28.98L49.121 26.995C55.183 27.735 56 28.897 56 29.937C56 30.21 55.905 30.46 55.746 30.692L44 49.29V52C44 52.408 43.752 52.776 43.373 52.928C42.282 53.366 41.186 53.584 40.066 53.584C38.956 53.584 37.824 53.369 36.654 52.938C36.262 52.793 36 52.419 36 52V49.29L24.254 30.692ZM46.924 59.617C47.079 59.991 46.993 60.421 46.707 60.707L40.707 66.707C40.512 66.902 40.256 67 40 67C39.744 67 39.488 66.902 39.293 66.707L33.293 60.707C33.007 60.421 32.921 59.991 33.076 59.617C33.23 59.244 33.596 59 34 59H37V56H39V60C39 60.552 38.553 61 38 61H36.414L40 64.586L43.586 61H42C41.447 61 41 60.552 41 60V56H43V59H46C46.404 59 46.77 59.244 46.924 59.617Z" fill="white"/>
</g>
<defs>
<linearGradient id="paint0_linear_185_51347" x1="0" y1="80" x2="80" y2="0" gradientUnits="userSpaceOnUse">
<stop stop-color="#4D27A8"/>
<stop offset="1" stop-color="#A166FF"/>
</linearGradient>
<clipPath id="clip0_185_51347">
<rect width="80" height="80" fill="white"/>
</clipPath>
</defs>
</svg>
