<?xml version="1.0" encoding="utf-8"?>
<!-- Generator: Adobe Illustrator 25.2.3, SVG Export Plug-In . SVG Version: 6.00 Build 0)  -->
<svg version="1.1" id="Layer_1" xmlns="http://www.w3.org/2000/svg" xmlns:xlink="http://www.w3.org/1999/xlink" x="0px" y="0px"
	 viewBox="0 0 75 75" style="enable-background:new 0 0 75 75;" xml:space="preserve">
<style type="text/css">
	.st0{fill:#D6242D;}
</style>
<g id="Reference_1_">
	<g id="Reference_2_">
		<g id="Icon_Test_1_">
			<g>
				<path class="st0" d="M30.9,44.4c-0.2-0.2-0.4-0.3-0.6-0.3H18v-4.4c0-1,0.5-1.9,1.3-2.6c0.9-0.7,1.9-1,3.1-1s2.2,0.4,3.2,1.1
					c0.7,0.6,1.2,1.4,1.2,2.4v4.4h1.7v-4.8c0-1.4-0.7-2.8-1.8-3.6c-1.2-0.9-2.8-1.4-4.3-1.4c-3.4,0-6.1,2.2-6.1,4.9V44h-1.7
					c-0.5,0-0.9,0.4-0.9,0.9v12.4c0,0.5,0.4,0.9,0.9,0.9h15.8c0.5,0,0.9-0.4,0.9-0.9V45C31.2,44.7,31.1,44.5,30.9,44.4z M29.5,48.5
					h-2.7v1.7h2.7v1.7h-2.7v1.7h2.7v2.7H15.4V45.8h14.1V48.5z"/>
				<path class="st0" d="M22.4,47.2c-1.4,0-2.6,1.1-2.6,2.6c0,1.1,0.7,2,1.7,2.4v2.4h1.6v-2.4c1.3-0.5,2-1.9,1.5-3.3
					C24.5,48,23.5,47.2,22.4,47.2z M22.4,50.9c-0.6,0-1.1-0.5-1.1-1.1s0.5-1.1,1.1-1.1s1.1,0.5,1.1,1.1S23,50.9,22.4,50.9L22.4,50.9
					z"/>
				<path class="st0" d="M35.5,42.4c2.7-2,5.7-3,8.9-3c7.1,0.2,13.5,5.9,13.5,14c1.2,0,2.2,0,3.4,0c-0.5-7.4-3.9-12.8-10.6-16
					c3.4-2.5,5.4-5.9,5.4-10.3c0-3.4-1.2-6.2-3.7-8.6c-4.9-4.7-12.6-4.7-17.2,0c-4.9,4.9-5.2,14,1.7,19c-2,1-3.7,2.2-5.2,3.7
					c1.2,0.5,2.2,1,3,2C35,42.9,35.2,42.7,35.5,42.4z M35.2,27.4c0-4.9,3.9-8.9,8.9-8.9s8.9,3.9,8.9,8.9s-3.9,8.9-8.9,8.9
					C39.2,36,35.2,32.3,35.2,27.4z"/>
			</g>
		</g>
	</g>
</g>
</svg>
