<?xml version="1.0" encoding="UTF-8"?>
<svg xmlns="http://www.w3.org/2000/svg" xmlns:xlink="http://www.w3.org/1999/xlink" width="16px" height="16px" viewBox="0 0 16 16" version="1.1">
<defs>
<linearGradient id="linear0" gradientUnits="userSpaceOnUse" x1="0" y1="1" x2="1" y2="0" gradientTransform="matrix(16,0,0,16,0,0)">
<stop offset="0" style="stop-color:rgb(74.117647%,3.137255%,8.627451%);stop-opacity:1;"/>
<stop offset="1" style="stop-color:rgb(100%,32.156863%,32.156863%);stop-opacity:1;"/>
</linearGradient>
</defs>
<g id="surface1">
<rect x="0" y="0" width="16" height="16" style="fill:url(#linear0);stroke:none;"/>
<path style=" stroke:none;fill-rule:evenodd;fill:rgb(100%,100%,100%);fill-opacity:1;" d="M 8.679688 10.300781 L 10.015625 10.300781 L 10.015625 9.636719 L 8.679688 9.636719 Z M 6.679688 10.300781 L 8.015625 10.300781 L 8.015625 9.636719 L 6.679688 9.636719 Z M 12.679688 6.636719 L 12.679688 11.300781 C 12.679688 11.484375 12.53125 11.636719 12.347656 11.636719 L 6.679688 11.636719 L 6.679688 10.96875 L 12.015625 10.96875 L 12.015625 6.96875 L 8.015625 6.96875 L 8.015625 6.300781 L 12.347656 6.300781 C 12.53125 6.300781 12.679688 6.453125 12.679688 6.636719 Z M 4.988281 7.3125 C 4.074219 7.3125 3.332031 6.570312 3.332031 5.65625 C 3.332031 4.742188 4.074219 4 4.988281 4 C 5.902344 4 6.644531 4.742188 6.644531 5.65625 C 6.644531 6.570312 5.902344 7.3125 4.988281 7.3125 Z M 4.988281 3.332031 C 3.707031 3.332031 2.667969 4.375 2.667969 5.65625 C 2.667969 6.824219 3.535156 7.78125 4.65625 7.945312 L 4.65625 10.96875 L 3.347656 10.96875 L 3.347656 11.636719 L 4.65625 11.636719 L 4.65625 12.96875 L 5.320312 12.96875 L 5.320312 7.945312 C 6.445312 7.78125 7.3125 6.824219 7.3125 5.65625 C 7.3125 4.375 6.269531 3.332031 4.988281 3.332031 Z M 4.988281 3.332031 "/>
</g>
</svg>
