<?xml version="1.0" encoding="UTF-8"?>
<svg xmlns="http://www.w3.org/2000/svg" xmlns:xlink="http://www.w3.org/1999/xlink" width="16px" height="16px" viewBox="0 0 16 16" version="1.1">
<g id="surface1">
<path style=" stroke:none;fill-rule:evenodd;fill:rgb(30.196078%,15.294118%,66.666667%);fill-opacity:1;" d="M 11.148438 13.121094 C 9.628906 13.394531 8.34375 14.195312 7.863281 14.527344 C 7.378906 14.195312 6.09375 13.394531 4.574219 13.121094 C 3.8125 12.984375 1.332031 12.378906 1.332031 10.308594 C 1.332031 9.441406 1.660156 8.878906 2.007812 8.28125 C 2.335938 7.71875 2.671875 7.136719 2.671875 6.339844 C 2.671875 5.144531 2.011719 4.285156 1.644531 3.894531 C 2.019531 3.433594 2.84375 2.433594 3.296875 1.851562 C 3.992188 2.480469 4.789062 2.824219 5.582031 2.824219 C 6.464844 2.824219 7.199219 2.476562 7.863281 1.738281 C 8.527344 2.476562 9.257812 2.824219 10.140625 2.824219 C 10.933594 2.824219 11.730469 2.480469 12.425781 1.851562 C 12.878906 2.433594 13.703125 3.433594 14.082031 3.894531 C 13.710938 4.285156 13.050781 5.144531 13.050781 6.339844 C 13.050781 7.136719 13.386719 7.71875 13.714844 8.28125 C 14.0625 8.878906 14.390625 9.441406 14.390625 10.308594 C 14.390625 12.378906 11.910156 12.984375 11.148438 13.121094 M 14.292969 7.945312 C 13.984375 7.414062 13.71875 6.957031 13.71875 6.339844 C 13.71875 5.035156 14.734375 4.1875 14.746094 4.179688 L 15.007812 3.96875 L 14.792969 3.710938 C 14.773438 3.691406 13.109375 1.671875 12.730469 1.152344 L 12.492188 0.824219 L 12.21875 1.121094 C 11.59375 1.789062 10.855469 2.15625 10.140625 2.15625 C 9.351562 2.15625 8.730469 1.804688 8.125 1.011719 L 7.863281 0.667969 L 7.597656 1.011719 C 6.992188 1.804688 6.371094 2.15625 5.582031 2.15625 C 4.867188 2.15625 4.128906 1.789062 3.503906 1.121094 L 3.230469 0.824219 L 2.992188 1.152344 C 2.613281 1.671875 0.949219 3.691406 0.929688 3.710938 L 0.71875 3.96875 L 0.980469 4.179688 C 0.988281 4.191406 2.003906 5.027344 2.003906 6.339844 C 2.003906 6.957031 1.738281 7.414062 1.429688 7.945312 C 1.074219 8.5625 0.667969 9.265625 0.667969 10.308594 C 0.667969 12.054688 2.082031 13.351562 4.457031 13.777344 C 6.191406 14.089844 7.644531 15.191406 7.660156 15.203125 L 7.863281 15.359375 L 8.0625 15.203125 C 8.078125 15.191406 9.53125 14.089844 11.269531 13.777344 C 13.640625 13.351562 15.054688 12.054688 15.054688 10.308594 C 15.054688 9.265625 14.648438 8.5625 14.292969 7.945312 "/>
</g>
</svg>
