<?xml version="1.0" encoding="UTF-8"?>
<svg xmlns="http://www.w3.org/2000/svg" xmlns:xlink="http://www.w3.org/1999/xlink" width="16px" height="16px" viewBox="0 0 16 16" version="1.1">
<g id="surface1">
<path style=" stroke:none;fill-rule:evenodd;fill:rgb(30.196078%,15.294118%,66.666667%);fill-opacity:1;" d="M 14.070312 8.234375 L 12.609375 9.695312 L 12.140625 9.222656 L 13.027344 8.332031 L 8.332031 8.332031 L 8.332031 13.027344 L 9.222656 12.140625 L 9.695312 12.609375 L 8.234375 14.070312 C 8.171875 14.132812 8.085938 14.167969 8 14.167969 C 7.914062 14.167969 7.828125 14.132812 7.765625 14.070312 L 6.304688 12.609375 L 6.777344 12.140625 L 7.667969 13.027344 L 7.667969 8.332031 L 2.972656 8.332031 L 3.859375 9.222656 L 3.390625 9.695312 L 1.929688 8.234375 C 1.800781 8.105469 1.800781 7.894531 1.929688 7.765625 L 3.390625 6.304688 L 3.859375 6.777344 L 2.972656 7.667969 L 7.667969 7.667969 L 7.667969 2.972656 L 6.777344 3.859375 L 6.304688 3.390625 L 7.765625 1.929688 C 7.894531 1.800781 8.105469 1.800781 8.234375 1.929688 L 9.695312 3.390625 L 9.222656 3.859375 L 8.332031 2.972656 L 8.332031 7.667969 L 13.027344 7.667969 L 12.140625 6.777344 L 12.609375 6.304688 L 14.070312 7.765625 C 14.199219 7.894531 14.199219 8.105469 14.070312 8.234375 M 8 14.667969 C 4.324219 14.667969 1.332031 11.675781 1.332031 8 C 1.332031 4.324219 4.324219 1.332031 8 1.332031 C 11.675781 1.332031 14.667969 4.324219 14.667969 8 C 14.667969 11.675781 11.675781 14.667969 8 14.667969 M 8 0.667969 C 3.957031 0.667969 0.667969 3.957031 0.667969 8 C 0.667969 12.042969 3.957031 15.332031 8 15.332031 C 12.042969 15.332031 15.332031 12.042969 15.332031 8 C 15.332031 3.957031 12.042969 0.667969 8 0.667969 "/>
</g>
</svg>
